M48
; DRILL file {KiCad (5.99.0-1153-ge46e2e4e7)} date Fri Mar 27 12:47:29 2020
; FORMAT={-:-/ absolute / inch / decimal}
; #@! TF.CreationDate,2020-03-27T12:47:29+02:00
; #@! TF.GenerationSoftware,Kicad,Pcbnew,(5.99.0-1153-ge46e2e4e7)
; #@! TF.FileFunction,Plated,1,2,PTH
FMAT,2
INCH
T1C0.0295
T2C0.0315
T3C0.0354
T4C0.0433
T5C0.0472
%
G90
G05
T1
X4.41Y-1.79
X4.46Y-1.79
X4.51Y-1.79
T2
X5.182Y-2.544
X5.3789Y-2.544
X4.185Y-2.578
X4.3819Y-2.578
X4.95Y-2.11
X5.0484Y-2.11
X4.491Y-2.584
X4.6879Y-2.584
X5.085Y-3.0895
X5.385Y-3.0895
X5.23Y-2.17
X5.3284Y-2.17
X5.085Y-2.9695
X5.385Y-2.9695
X5.085Y-3.205
X5.385Y-3.205
X4.27Y-2.745
X4.57Y-2.745
X4.235Y-2.415
X4.4319Y-2.415
X3.95Y-1.77
X3.95Y-1.9669
X5.085Y-3.3275
X5.385Y-3.3275
X3.877Y-2.787
X4.177Y-2.787
X3.54Y-2.075
X3.84Y-2.075
X4.785Y-2.584
X5.085Y-2.584
X4.68Y-1.76
X4.98Y-1.76
X5.085Y-2.725
X5.385Y-2.725
X3.945Y-2.29
X4.245Y-2.29
X3.54Y-2.195
X3.84Y-2.195
X3.8774Y-2.908
X4.1774Y-2.908
X4.5481Y-2.42
X4.745Y-2.42
X4.6Y-3.15
X4.9Y-3.15
X4.68Y-2.72
X4.68Y-2.82
X4.68Y-2.92
X4.68Y-3.02
X4.98Y-2.72
X4.98Y-2.82
X4.98Y-2.92
X4.98Y-3.02
X5.1731Y-2.385
X5.37Y-2.385
X4.27Y-2.865
X4.57Y-2.865
X4.27Y-2.985
X4.57Y-2.985
X3.7856Y-3.155
X3.9825Y-3.155
X3.8774Y-3.028
X4.1774Y-3.028
X4.1Y-1.77
X4.2969Y-1.77
X3.945Y-2.17
X4.245Y-2.17
X3.8791Y-2.539
X4.076Y-2.539
X3.54Y-1.95
X3.84Y-1.95
X5.18Y-1.95
X5.3769Y-1.95
X4.345Y-2.25
X4.5419Y-2.25
X4.0921Y-3.151
X4.289Y-3.151
X4.66Y-2.1
X4.7584Y-2.1
X4.8581Y-2.42
X5.055Y-2.42
X4.11Y-1.97
X4.2084Y-1.97
X4.385Y-2.04
X4.4834Y-2.04
X3.462Y-2.325
X3.462Y-2.425
X3.462Y-2.525
X3.462Y-2.625
X3.462Y-2.725
X3.462Y-2.825
X3.462Y-2.925
X3.462Y-3.025
X3.762Y-2.325
X3.762Y-2.425
X3.762Y-2.525
X3.762Y-2.625
X3.762Y-2.725
X3.762Y-2.825
X3.762Y-2.925
X3.762Y-3.025
X3.48Y-3.155
X3.6769Y-3.155
X3.9181Y-2.415
X4.115Y-2.415
X5.085Y-2.845
X5.385Y-2.845
X3.878Y-2.662
X4.0749Y-2.662
X4.77Y-1.88
X4.9669Y-1.88
T3
X4.3975Y-3.1375
X4.4975Y-3.1375
X4.7075Y-3.32
X4.8075Y-3.32
X4.0875Y-3.32
X4.1875Y-3.32
T4
X4.4Y-1.65
X4.5Y-1.65
X4.296Y-3.316
X4.396Y-3.316
X4.496Y-3.316
X4.596Y-3.316
T5
X3.48Y-3.32
X3.58Y-3.32
X3.68Y-3.32
X3.78Y-3.32
X3.88Y-3.32
X3.98Y-3.32
X3.5Y-1.825
X3.65Y-1.825
X3.8Y-1.825
X3.5Y-1.65
X3.65Y-1.65
X3.8Y-1.65
X4.64Y-1.65
X4.79Y-1.65
X4.94Y-1.65
X5.075Y-1.825
X5.225Y-1.825
X5.375Y-1.825
X5.075Y-1.65
X5.225Y-1.65
X5.375Y-1.65
X3.96Y-1.65
X4.11Y-1.65
X4.26Y-1.65
T0
M30
