G04 #@! TF.GenerationSoftware,KiCad,Pcbnew,(5.99.0-1153-ge46e2e4e7)*
G04 #@! TF.CreationDate,2020-03-27T12:47:27+02:00*
G04 #@! TF.ProjectId,triton-delay,74726974-6f6e-42d6-9465-6c61792e6b69,rev?*
G04 #@! TF.SameCoordinates,Original*
G04 #@! TF.FileFunction,Legend,Bot*
G04 #@! TF.FilePolarity,Positive*
%FSLAX46Y46*%
G04 Gerber Fmt 4.6, Leading zero omitted, Abs format (unit mm)*
G04 Created by KiCad (PCBNEW (5.99.0-1153-ge46e2e4e7)) date 2020-03-27 12:47:27*
%MOMM*%
%LPD*%
G01*
G04 APERTURE LIST*
%ADD10C,0.080000*%
%ADD11C,0.100000*%
%ADD12C,0.300000*%
%ADD13C,0.127000*%
%ADD14C,0.120000*%
%ADD15C,0.150000*%
%ADD16O,1.700000X1.700000*%
%ADD17C,1.700000*%
%ADD18O,2.132000X2.132000*%
%ADD19R,2.132000X2.132000*%
%ADD20O,2.030400X2.030400*%
%ADD21R,2.030400X2.030400*%
%ADD22R,1.150000X1.600000*%
%ADD23O,1.150000X1.600000*%
%ADD24R,1.700000X1.700000*%
%ADD25C,1.900000*%
%ADD26R,1.900000X1.900000*%
G04 APERTURE END LIST*
D10*
X95408666Y-82625380D02*
X95337238Y-82649190D01*
X95218190Y-82649190D01*
X95170571Y-82625380D01*
X95146761Y-82601571D01*
X95122952Y-82553952D01*
X95122952Y-82506333D01*
X95146761Y-82458714D01*
X95170571Y-82434904D01*
X95218190Y-82411095D01*
X95313428Y-82387285D01*
X95361047Y-82363476D01*
X95384857Y-82339666D01*
X95408666Y-82292047D01*
X95408666Y-82244428D01*
X95384857Y-82196809D01*
X95361047Y-82173000D01*
X95313428Y-82149190D01*
X95194380Y-82149190D01*
X95122952Y-82173000D01*
X94956285Y-82149190D02*
X94837238Y-82649190D01*
X94742000Y-82292047D01*
X94646761Y-82649190D01*
X94527714Y-82149190D01*
X94075333Y-82649190D02*
X94361047Y-82649190D01*
X94218190Y-82649190D02*
X94218190Y-82149190D01*
X94265809Y-82220619D01*
X94313428Y-82268238D01*
X94361047Y-82292047D01*
X101885761Y-82403190D02*
X101981000Y-82403190D01*
X102028619Y-82427000D01*
X102052428Y-82450809D01*
X102100047Y-82522238D01*
X102123857Y-82617476D01*
X102123857Y-82807952D01*
X102100047Y-82855571D01*
X102076238Y-82879380D01*
X102028619Y-82903190D01*
X101933380Y-82903190D01*
X101885761Y-82879380D01*
X101861952Y-82855571D01*
X101838142Y-82807952D01*
X101838142Y-82688904D01*
X101861952Y-82641285D01*
X101885761Y-82617476D01*
X101933380Y-82593666D01*
X102028619Y-82593666D01*
X102076238Y-82617476D01*
X102100047Y-82641285D01*
X102123857Y-82688904D01*
X87360142Y-82903190D02*
X87645857Y-82903190D01*
X87503000Y-82903190D02*
X87503000Y-82403190D01*
X87550619Y-82474619D01*
X87598238Y-82522238D01*
X87645857Y-82546047D01*
X134975333Y-81480571D02*
X134784857Y-82013904D01*
X134594380Y-81480571D01*
X134327714Y-81290095D02*
X134289619Y-81252000D01*
X134213428Y-81213904D01*
X134022952Y-81213904D01*
X133946761Y-81252000D01*
X133908666Y-81290095D01*
X133870571Y-81366285D01*
X133870571Y-81442476D01*
X133908666Y-81556761D01*
X134365809Y-82013904D01*
X133870571Y-82013904D01*
X133527714Y-81709142D02*
X132918190Y-81709142D01*
X132613428Y-81213904D02*
X132118190Y-81213904D01*
X132384857Y-81518666D01*
X132270571Y-81518666D01*
X132194380Y-81556761D01*
X132156285Y-81594857D01*
X132118190Y-81671047D01*
X132118190Y-81861523D01*
X132156285Y-81937714D01*
X132194380Y-81975809D01*
X132270571Y-82013904D01*
X132499142Y-82013904D01*
X132575333Y-81975809D01*
X132613428Y-81937714D01*
X131965809Y-82090095D02*
X131356285Y-82090095D01*
X131203904Y-81290095D02*
X131165809Y-81252000D01*
X131089619Y-81213904D01*
X130899142Y-81213904D01*
X130822952Y-81252000D01*
X130784857Y-81290095D01*
X130746761Y-81366285D01*
X130746761Y-81442476D01*
X130784857Y-81556761D01*
X131242000Y-82013904D01*
X130746761Y-82013904D01*
X136727714Y-82578095D02*
X136689619Y-82540000D01*
X136613428Y-82501904D01*
X136422952Y-82501904D01*
X136346761Y-82540000D01*
X136308666Y-82578095D01*
X136270571Y-82654285D01*
X136270571Y-82730476D01*
X136308666Y-82844761D01*
X136765809Y-83301904D01*
X136270571Y-83301904D01*
X135775333Y-82501904D02*
X135699142Y-82501904D01*
X135622952Y-82540000D01*
X135584857Y-82578095D01*
X135546761Y-82654285D01*
X135508666Y-82806666D01*
X135508666Y-82997142D01*
X135546761Y-83149523D01*
X135584857Y-83225714D01*
X135622952Y-83263809D01*
X135699142Y-83301904D01*
X135775333Y-83301904D01*
X135851523Y-83263809D01*
X135889619Y-83225714D01*
X135927714Y-83149523D01*
X135965809Y-82997142D01*
X135965809Y-82806666D01*
X135927714Y-82654285D01*
X135889619Y-82578095D01*
X135851523Y-82540000D01*
X135775333Y-82501904D01*
X135203904Y-82578095D02*
X135165809Y-82540000D01*
X135089619Y-82501904D01*
X134899142Y-82501904D01*
X134822952Y-82540000D01*
X134784857Y-82578095D01*
X134746761Y-82654285D01*
X134746761Y-82730476D01*
X134784857Y-82844761D01*
X135242000Y-83301904D01*
X134746761Y-83301904D01*
X134251523Y-82501904D02*
X134175333Y-82501904D01*
X134099142Y-82540000D01*
X134061047Y-82578095D01*
X134022952Y-82654285D01*
X133984857Y-82806666D01*
X133984857Y-82997142D01*
X134022952Y-83149523D01*
X134061047Y-83225714D01*
X134099142Y-83263809D01*
X134175333Y-83301904D01*
X134251523Y-83301904D01*
X134327714Y-83263809D01*
X134365809Y-83225714D01*
X134403904Y-83149523D01*
X134442000Y-82997142D01*
X134442000Y-82806666D01*
X134403904Y-82654285D01*
X134365809Y-82578095D01*
X134327714Y-82540000D01*
X134251523Y-82501904D01*
X133642000Y-82997142D02*
X133032476Y-82997142D01*
X132499142Y-82501904D02*
X132422952Y-82501904D01*
X132346761Y-82540000D01*
X132308666Y-82578095D01*
X132270571Y-82654285D01*
X132232476Y-82806666D01*
X132232476Y-82997142D01*
X132270571Y-83149523D01*
X132308666Y-83225714D01*
X132346761Y-83263809D01*
X132422952Y-83301904D01*
X132499142Y-83301904D01*
X132575333Y-83263809D01*
X132613428Y-83225714D01*
X132651523Y-83149523D01*
X132689619Y-82997142D01*
X132689619Y-82806666D01*
X132651523Y-82654285D01*
X132613428Y-82578095D01*
X132575333Y-82540000D01*
X132499142Y-82501904D01*
X131965809Y-82501904D02*
X131470571Y-82501904D01*
X131737238Y-82806666D01*
X131622952Y-82806666D01*
X131546761Y-82844761D01*
X131508666Y-82882857D01*
X131470571Y-82959047D01*
X131470571Y-83149523D01*
X131508666Y-83225714D01*
X131546761Y-83263809D01*
X131622952Y-83301904D01*
X131851523Y-83301904D01*
X131927714Y-83263809D01*
X131965809Y-83225714D01*
X131127714Y-82997142D02*
X130518190Y-82997142D01*
X130175333Y-82578095D02*
X130137238Y-82540000D01*
X130061047Y-82501904D01*
X129870571Y-82501904D01*
X129794380Y-82540000D01*
X129756285Y-82578095D01*
X129718190Y-82654285D01*
X129718190Y-82730476D01*
X129756285Y-82844761D01*
X130213428Y-83301904D01*
X129718190Y-83301904D01*
X129451523Y-82501904D02*
X128918190Y-82501904D01*
X129261047Y-83301904D01*
D11*
X129304380Y-50111571D02*
X129113904Y-50644904D01*
X128923428Y-50111571D01*
X128656761Y-49921095D02*
X128618666Y-49883000D01*
X128542476Y-49844904D01*
X128352000Y-49844904D01*
X128275809Y-49883000D01*
X128237714Y-49921095D01*
X128199619Y-49997285D01*
X128199619Y-50073476D01*
X128237714Y-50187761D01*
X128694857Y-50644904D01*
X128199619Y-50644904D01*
X127856761Y-50340142D02*
X127247238Y-50340142D01*
X126942476Y-49844904D02*
X126447238Y-49844904D01*
X126713904Y-50149666D01*
X126599619Y-50149666D01*
X126523428Y-50187761D01*
X126485333Y-50225857D01*
X126447238Y-50302047D01*
X126447238Y-50492523D01*
X126485333Y-50568714D01*
X126523428Y-50606809D01*
X126599619Y-50644904D01*
X126828190Y-50644904D01*
X126904380Y-50606809D01*
X126942476Y-50568714D01*
X125494857Y-50644904D02*
X125494857Y-49844904D01*
X125228190Y-50416333D01*
X124961523Y-49844904D01*
X124961523Y-50644904D01*
X124237714Y-50644904D02*
X124237714Y-50225857D01*
X124275809Y-50149666D01*
X124352000Y-50111571D01*
X124504380Y-50111571D01*
X124580571Y-50149666D01*
X124237714Y-50606809D02*
X124313904Y-50644904D01*
X124504380Y-50644904D01*
X124580571Y-50606809D01*
X124618666Y-50530619D01*
X124618666Y-50454428D01*
X124580571Y-50378238D01*
X124504380Y-50340142D01*
X124313904Y-50340142D01*
X124237714Y-50302047D01*
X123856761Y-50644904D02*
X123856761Y-50111571D01*
X123856761Y-50263952D02*
X123818666Y-50187761D01*
X123780571Y-50149666D01*
X123704380Y-50111571D01*
X123628190Y-50111571D01*
X123018666Y-50606809D02*
X123094857Y-50644904D01*
X123247238Y-50644904D01*
X123323428Y-50606809D01*
X123361523Y-50568714D01*
X123399619Y-50492523D01*
X123399619Y-50263952D01*
X123361523Y-50187761D01*
X123323428Y-50149666D01*
X123247238Y-50111571D01*
X123094857Y-50111571D01*
X123018666Y-50149666D01*
X122675809Y-50644904D02*
X122675809Y-49844904D01*
X122332952Y-50644904D02*
X122332952Y-50225857D01*
X122371047Y-50149666D01*
X122447238Y-50111571D01*
X122561523Y-50111571D01*
X122637714Y-50149666D01*
X122675809Y-50187761D01*
X121380571Y-49921095D02*
X121342476Y-49883000D01*
X121266285Y-49844904D01*
X121075809Y-49844904D01*
X120999619Y-49883000D01*
X120961523Y-49921095D01*
X120923428Y-49997285D01*
X120923428Y-50073476D01*
X120961523Y-50187761D01*
X121418666Y-50644904D01*
X120923428Y-50644904D01*
X120428190Y-49844904D02*
X120352000Y-49844904D01*
X120275809Y-49883000D01*
X120237714Y-49921095D01*
X120199619Y-49997285D01*
X120161523Y-50149666D01*
X120161523Y-50340142D01*
X120199619Y-50492523D01*
X120237714Y-50568714D01*
X120275809Y-50606809D01*
X120352000Y-50644904D01*
X120428190Y-50644904D01*
X120504380Y-50606809D01*
X120542476Y-50568714D01*
X120580571Y-50492523D01*
X120618666Y-50340142D01*
X120618666Y-50149666D01*
X120580571Y-49997285D01*
X120542476Y-49921095D01*
X120504380Y-49883000D01*
X120428190Y-49844904D01*
X119856761Y-49921095D02*
X119818666Y-49883000D01*
X119742476Y-49844904D01*
X119552000Y-49844904D01*
X119475809Y-49883000D01*
X119437714Y-49921095D01*
X119399619Y-49997285D01*
X119399619Y-50073476D01*
X119437714Y-50187761D01*
X119894857Y-50644904D01*
X119399619Y-50644904D01*
X118904380Y-49844904D02*
X118828190Y-49844904D01*
X118752000Y-49883000D01*
X118713904Y-49921095D01*
X118675809Y-49997285D01*
X118637714Y-50149666D01*
X118637714Y-50340142D01*
X118675809Y-50492523D01*
X118713904Y-50568714D01*
X118752000Y-50606809D01*
X118828190Y-50644904D01*
X118904380Y-50644904D01*
X118980571Y-50606809D01*
X119018666Y-50568714D01*
X119056761Y-50492523D01*
X119094857Y-50340142D01*
X119094857Y-50149666D01*
X119056761Y-49997285D01*
X119018666Y-49921095D01*
X118980571Y-49883000D01*
X118904380Y-49844904D01*
X132142476Y-51932904D02*
X132142476Y-51132904D01*
X132142476Y-51437666D02*
X132066285Y-51399571D01*
X131913904Y-51399571D01*
X131837714Y-51437666D01*
X131799619Y-51475761D01*
X131761523Y-51551952D01*
X131761523Y-51780523D01*
X131799619Y-51856714D01*
X131837714Y-51894809D01*
X131913904Y-51932904D01*
X132066285Y-51932904D01*
X132142476Y-51894809D01*
X131494857Y-51399571D02*
X131304380Y-51932904D01*
X131113904Y-51399571D02*
X131304380Y-51932904D01*
X131380571Y-52123380D01*
X131418666Y-52161476D01*
X131494857Y-52199571D01*
X129856761Y-51894809D02*
X129932952Y-51932904D01*
X130085333Y-51932904D01*
X130161523Y-51894809D01*
X130199619Y-51856714D01*
X130237714Y-51780523D01*
X130237714Y-51551952D01*
X130199619Y-51475761D01*
X130161523Y-51437666D01*
X130085333Y-51399571D01*
X129932952Y-51399571D01*
X129856761Y-51437666D01*
X129171047Y-51399571D02*
X129171047Y-51932904D01*
X129513904Y-51399571D02*
X129513904Y-51818619D01*
X129475809Y-51894809D01*
X129399619Y-51932904D01*
X129285333Y-51932904D01*
X129209142Y-51894809D01*
X129171047Y-51856714D01*
X128675809Y-51932904D02*
X128751999Y-51894809D01*
X128790095Y-51818619D01*
X128790095Y-51132904D01*
X128485333Y-51399571D02*
X128180571Y-51399571D01*
X128371047Y-51132904D02*
X128371047Y-51818619D01*
X128332952Y-51894809D01*
X128256761Y-51932904D01*
X128180571Y-51932904D01*
X127571047Y-51399571D02*
X127571047Y-51932904D01*
X127913904Y-51399571D02*
X127913904Y-51818619D01*
X127875809Y-51894809D01*
X127799619Y-51932904D01*
X127685333Y-51932904D01*
X127609142Y-51894809D01*
X127571047Y-51856714D01*
X127190095Y-51932904D02*
X127190095Y-51399571D01*
X127190095Y-51551952D02*
X127151999Y-51475761D01*
X127113904Y-51437666D01*
X127037714Y-51399571D01*
X126961523Y-51399571D01*
X126390095Y-51894809D02*
X126466285Y-51932904D01*
X126618666Y-51932904D01*
X126694857Y-51894809D01*
X126732952Y-51818619D01*
X126732952Y-51513857D01*
X126694857Y-51437666D01*
X126618666Y-51399571D01*
X126466285Y-51399571D01*
X126390095Y-51437666D01*
X126351999Y-51513857D01*
X126351999Y-51590047D01*
X126732952Y-51666238D01*
X126009142Y-51399571D02*
X126009142Y-52085285D01*
X126047238Y-52161476D01*
X126123428Y-52199571D01*
X126161523Y-52199571D01*
X126009142Y-51132904D02*
X126047238Y-51171000D01*
X126009142Y-51209095D01*
X125971047Y-51171000D01*
X126009142Y-51132904D01*
X126009142Y-51209095D01*
X125285333Y-51932904D02*
X125285333Y-51513857D01*
X125323428Y-51437666D01*
X125399619Y-51399571D01*
X125552000Y-51399571D01*
X125628190Y-51437666D01*
X125285333Y-51894809D02*
X125361523Y-51932904D01*
X125552000Y-51932904D01*
X125628190Y-51894809D01*
X125666285Y-51818619D01*
X125666285Y-51742428D01*
X125628190Y-51666238D01*
X125552000Y-51628142D01*
X125361523Y-51628142D01*
X125285333Y-51590047D01*
X124904380Y-51932904D02*
X124904380Y-51399571D01*
X124904380Y-51475761D02*
X124866285Y-51437666D01*
X124790095Y-51399571D01*
X124675809Y-51399571D01*
X124599619Y-51437666D01*
X124561523Y-51513857D01*
X124561523Y-51932904D01*
X124561523Y-51513857D02*
X124523428Y-51437666D01*
X124447238Y-51399571D01*
X124332952Y-51399571D01*
X124256761Y-51437666D01*
X124218666Y-51513857D01*
X124218666Y-51932904D01*
X123266285Y-51094809D02*
X123952000Y-52123380D01*
X122504380Y-51551952D02*
X122542476Y-51513857D01*
X122618666Y-51475761D01*
X122694857Y-51475761D01*
X122771047Y-51513857D01*
X122809142Y-51551952D01*
X122847238Y-51628142D01*
X122847238Y-51704333D01*
X122809142Y-51780523D01*
X122771047Y-51818619D01*
X122694857Y-51856714D01*
X122618666Y-51856714D01*
X122542476Y-51818619D01*
X122504380Y-51780523D01*
X122504380Y-51475761D02*
X122504380Y-51780523D01*
X122466285Y-51818619D01*
X122428190Y-51818619D01*
X122352000Y-51780523D01*
X122313904Y-51704333D01*
X122313904Y-51513857D01*
X122390095Y-51399571D01*
X122504380Y-51323380D01*
X122656761Y-51285285D01*
X122809142Y-51323380D01*
X122923428Y-51399571D01*
X122999619Y-51513857D01*
X123037714Y-51666238D01*
X122999619Y-51818619D01*
X122923428Y-51932904D01*
X122809142Y-52009095D01*
X122656761Y-52047190D01*
X122504380Y-52009095D01*
X122390095Y-51932904D01*
X122085333Y-51399571D02*
X121780571Y-51399571D01*
X121971047Y-51932904D02*
X121971047Y-51247190D01*
X121932952Y-51171000D01*
X121856761Y-51132904D01*
X121780571Y-51132904D01*
X121171047Y-51399571D02*
X121171047Y-51932904D01*
X121513904Y-51399571D02*
X121513904Y-51818619D01*
X121475809Y-51894809D01*
X121399619Y-51932904D01*
X121285333Y-51932904D01*
X121209142Y-51894809D01*
X121171047Y-51856714D01*
X120790095Y-51399571D02*
X120790095Y-51932904D01*
X120790095Y-51475761D02*
X120752000Y-51437666D01*
X120675809Y-51399571D01*
X120561523Y-51399571D01*
X120485333Y-51437666D01*
X120447238Y-51513857D01*
X120447238Y-51932904D01*
X119723428Y-51894809D02*
X119799619Y-51932904D01*
X119952000Y-51932904D01*
X120028190Y-51894809D01*
X120066285Y-51856714D01*
X120104380Y-51780523D01*
X120104380Y-51551952D01*
X120066285Y-51475761D01*
X120028190Y-51437666D01*
X119952000Y-51399571D01*
X119799619Y-51399571D01*
X119723428Y-51437666D01*
X119494857Y-51399571D02*
X119190095Y-51399571D01*
X119380571Y-51132904D02*
X119380571Y-51818619D01*
X119342476Y-51894809D01*
X119266285Y-51932904D01*
X119190095Y-51932904D01*
X118923428Y-51932904D02*
X118923428Y-51399571D01*
X118923428Y-51132904D02*
X118961523Y-51171000D01*
X118923428Y-51209095D01*
X118885333Y-51171000D01*
X118923428Y-51132904D01*
X118923428Y-51209095D01*
X118428190Y-51932904D02*
X118504380Y-51894809D01*
X118542476Y-51856714D01*
X118580571Y-51780523D01*
X118580571Y-51551952D01*
X118542476Y-51475761D01*
X118504380Y-51437666D01*
X118428190Y-51399571D01*
X118313904Y-51399571D01*
X118237714Y-51437666D01*
X118199619Y-51475761D01*
X118161523Y-51551952D01*
X118161523Y-51780523D01*
X118199619Y-51856714D01*
X118237714Y-51894809D01*
X118313904Y-51932904D01*
X118428190Y-51932904D01*
X117818666Y-51399571D02*
X117818666Y-51932904D01*
X117818666Y-51475761D02*
X117780571Y-51437666D01*
X117704380Y-51399571D01*
X117590095Y-51399571D01*
X117513904Y-51437666D01*
X117475809Y-51513857D01*
X117475809Y-51932904D01*
X117285333Y-52009095D02*
X116675809Y-52009095D01*
X116599619Y-51399571D02*
X116294857Y-51399571D01*
X116485333Y-51932904D02*
X116485333Y-51247190D01*
X116447238Y-51171000D01*
X116371047Y-51132904D01*
X116294857Y-51132904D01*
X116104380Y-51932904D02*
X115685333Y-51399571D01*
X116104380Y-51399571D02*
X115685333Y-51932904D01*
X132948761Y-67265571D02*
X132948761Y-67913190D01*
X132986857Y-67989380D01*
X133024952Y-68027476D01*
X133101142Y-68065571D01*
X133215428Y-68065571D01*
X133291619Y-68027476D01*
X132948761Y-67760809D02*
X133024952Y-67798904D01*
X133177333Y-67798904D01*
X133253523Y-67760809D01*
X133291619Y-67722714D01*
X133329714Y-67646523D01*
X133329714Y-67417952D01*
X133291619Y-67341761D01*
X133253523Y-67303666D01*
X133177333Y-67265571D01*
X133024952Y-67265571D01*
X132948761Y-67303666D01*
X132567809Y-67798904D02*
X132567809Y-67265571D01*
X132567809Y-66998904D02*
X132605904Y-67037000D01*
X132567809Y-67075095D01*
X132529714Y-67037000D01*
X132567809Y-66998904D01*
X132567809Y-67075095D01*
X132301142Y-67265571D02*
X131996380Y-67265571D01*
X132186857Y-66998904D02*
X132186857Y-67684619D01*
X132148761Y-67760809D01*
X132072571Y-67798904D01*
X131996380Y-67798904D01*
X131729714Y-67798904D02*
X131729714Y-66998904D01*
X131386857Y-67798904D02*
X131386857Y-67379857D01*
X131424952Y-67303666D01*
X131501142Y-67265571D01*
X131615428Y-67265571D01*
X131691619Y-67303666D01*
X131729714Y-67341761D01*
X130663047Y-67265571D02*
X130663047Y-67798904D01*
X131005904Y-67265571D02*
X131005904Y-67684619D01*
X130967809Y-67760809D01*
X130891619Y-67798904D01*
X130777333Y-67798904D01*
X130701142Y-67760809D01*
X130663047Y-67722714D01*
X130282095Y-67798904D02*
X130282095Y-66998904D01*
X130282095Y-67303666D02*
X130205904Y-67265571D01*
X130053523Y-67265571D01*
X129977333Y-67303666D01*
X129939238Y-67341761D01*
X129901142Y-67417952D01*
X129901142Y-67646523D01*
X129939238Y-67722714D01*
X129977333Y-67760809D01*
X130053523Y-67798904D01*
X130205904Y-67798904D01*
X130282095Y-67760809D01*
X129558285Y-67722714D02*
X129520190Y-67760809D01*
X129558285Y-67798904D01*
X129596380Y-67760809D01*
X129558285Y-67722714D01*
X129558285Y-67798904D01*
X128834476Y-67760809D02*
X128910666Y-67798904D01*
X129063047Y-67798904D01*
X129139238Y-67760809D01*
X129177333Y-67722714D01*
X129215428Y-67646523D01*
X129215428Y-67417952D01*
X129177333Y-67341761D01*
X129139238Y-67303666D01*
X129063047Y-67265571D01*
X128910666Y-67265571D01*
X128834476Y-67303666D01*
X128377333Y-67798904D02*
X128453523Y-67760809D01*
X128491619Y-67722714D01*
X128529714Y-67646523D01*
X128529714Y-67417952D01*
X128491619Y-67341761D01*
X128453523Y-67303666D01*
X128377333Y-67265571D01*
X128263047Y-67265571D01*
X128186857Y-67303666D01*
X128148761Y-67341761D01*
X128110666Y-67417952D01*
X128110666Y-67646523D01*
X128148761Y-67722714D01*
X128186857Y-67760809D01*
X128263047Y-67798904D01*
X128377333Y-67798904D01*
X127767809Y-67798904D02*
X127767809Y-67265571D01*
X127767809Y-67341761D02*
X127729714Y-67303666D01*
X127653523Y-67265571D01*
X127539238Y-67265571D01*
X127463047Y-67303666D01*
X127424952Y-67379857D01*
X127424952Y-67798904D01*
X127424952Y-67379857D02*
X127386857Y-67303666D01*
X127310666Y-67265571D01*
X127196380Y-67265571D01*
X127120190Y-67303666D01*
X127082095Y-67379857D01*
X127082095Y-67798904D01*
X126129714Y-66960809D02*
X126815428Y-67989380D01*
X125863047Y-67798904D02*
X125863047Y-67265571D01*
X125863047Y-67417952D02*
X125824952Y-67341761D01*
X125786857Y-67303666D01*
X125710666Y-67265571D01*
X125634476Y-67265571D01*
X125253523Y-67798904D02*
X125329714Y-67760809D01*
X125367809Y-67722714D01*
X125405904Y-67646523D01*
X125405904Y-67417952D01*
X125367809Y-67341761D01*
X125329714Y-67303666D01*
X125253523Y-67265571D01*
X125139238Y-67265571D01*
X125063047Y-67303666D01*
X125024952Y-67341761D01*
X124986857Y-67417952D01*
X124986857Y-67646523D01*
X125024952Y-67722714D01*
X125063047Y-67760809D01*
X125139238Y-67798904D01*
X125253523Y-67798904D01*
X124301142Y-67760809D02*
X124377333Y-67798904D01*
X124529714Y-67798904D01*
X124605904Y-67760809D01*
X124644000Y-67722714D01*
X124682095Y-67646523D01*
X124682095Y-67417952D01*
X124644000Y-67341761D01*
X124605904Y-67303666D01*
X124529714Y-67265571D01*
X124377333Y-67265571D01*
X124301142Y-67303666D01*
X123958285Y-67798904D02*
X123958285Y-66998904D01*
X123882095Y-67494142D02*
X123653523Y-67798904D01*
X123653523Y-67265571D02*
X123958285Y-67570333D01*
X123196380Y-67798904D02*
X123272571Y-67760809D01*
X123310666Y-67722714D01*
X123348761Y-67646523D01*
X123348761Y-67417952D01*
X123310666Y-67341761D01*
X123272571Y-67303666D01*
X123196380Y-67265571D01*
X123082095Y-67265571D01*
X123005904Y-67303666D01*
X122967809Y-67341761D01*
X122929714Y-67417952D01*
X122929714Y-67646523D01*
X122967809Y-67722714D01*
X123005904Y-67760809D01*
X123082095Y-67798904D01*
X123196380Y-67798904D01*
X122472571Y-67798904D02*
X122548761Y-67760809D01*
X122586857Y-67684619D01*
X122586857Y-66998904D01*
X121824952Y-67798904D02*
X121824952Y-67379857D01*
X121863047Y-67303666D01*
X121939238Y-67265571D01*
X122091619Y-67265571D01*
X122167809Y-67303666D01*
X121824952Y-67760809D02*
X121901142Y-67798904D01*
X122091619Y-67798904D01*
X122167809Y-67760809D01*
X122205904Y-67684619D01*
X122205904Y-67608428D01*
X122167809Y-67532238D01*
X122091619Y-67494142D01*
X121901142Y-67494142D01*
X121824952Y-67456047D01*
X120872571Y-66960809D02*
X121558285Y-67989380D01*
X120720190Y-67265571D02*
X120415428Y-67265571D01*
X120605904Y-66998904D02*
X120605904Y-67684619D01*
X120567809Y-67760809D01*
X120491619Y-67798904D01*
X120415428Y-67798904D01*
X120148761Y-67798904D02*
X120148761Y-67265571D01*
X120148761Y-67417952D02*
X120110666Y-67341761D01*
X120072571Y-67303666D01*
X119996380Y-67265571D01*
X119920190Y-67265571D01*
X119653523Y-67798904D02*
X119653523Y-67265571D01*
X119653523Y-66998904D02*
X119691619Y-67037000D01*
X119653523Y-67075095D01*
X119615428Y-67037000D01*
X119653523Y-66998904D01*
X119653523Y-67075095D01*
X119386857Y-67265571D02*
X119082095Y-67265571D01*
X119272571Y-66998904D02*
X119272571Y-67684619D01*
X119234476Y-67760809D01*
X119158285Y-67798904D01*
X119082095Y-67798904D01*
X118701142Y-67798904D02*
X118777333Y-67760809D01*
X118815428Y-67722714D01*
X118853523Y-67646523D01*
X118853523Y-67417952D01*
X118815428Y-67341761D01*
X118777333Y-67303666D01*
X118701142Y-67265571D01*
X118586857Y-67265571D01*
X118510666Y-67303666D01*
X118472571Y-67341761D01*
X118434476Y-67417952D01*
X118434476Y-67646523D01*
X118472571Y-67722714D01*
X118510666Y-67760809D01*
X118586857Y-67798904D01*
X118701142Y-67798904D01*
X118091619Y-67265571D02*
X118091619Y-67798904D01*
X118091619Y-67341761D02*
X118053523Y-67303666D01*
X117977333Y-67265571D01*
X117863047Y-67265571D01*
X117786857Y-67303666D01*
X117748761Y-67379857D01*
X117748761Y-67798904D01*
X117367809Y-67494142D02*
X116758285Y-67494142D01*
X116034476Y-67798904D02*
X116034476Y-66998904D01*
X116034476Y-67760809D02*
X116110666Y-67798904D01*
X116263047Y-67798904D01*
X116339238Y-67760809D01*
X116377333Y-67722714D01*
X116415428Y-67646523D01*
X116415428Y-67417952D01*
X116377333Y-67341761D01*
X116339238Y-67303666D01*
X116263047Y-67265571D01*
X116110666Y-67265571D01*
X116034476Y-67303666D01*
X115348761Y-67760809D02*
X115424952Y-67798904D01*
X115577333Y-67798904D01*
X115653523Y-67760809D01*
X115691619Y-67684619D01*
X115691619Y-67379857D01*
X115653523Y-67303666D01*
X115577333Y-67265571D01*
X115424952Y-67265571D01*
X115348761Y-67303666D01*
X115310666Y-67379857D01*
X115310666Y-67456047D01*
X115691619Y-67532238D01*
X114853523Y-67798904D02*
X114929714Y-67760809D01*
X114967809Y-67684619D01*
X114967809Y-66998904D01*
X114205904Y-67798904D02*
X114205904Y-67379857D01*
X114244000Y-67303666D01*
X114320190Y-67265571D01*
X114472571Y-67265571D01*
X114548761Y-67303666D01*
X114205904Y-67760809D02*
X114282095Y-67798904D01*
X114472571Y-67798904D01*
X114548761Y-67760809D01*
X114586857Y-67684619D01*
X114586857Y-67608428D01*
X114548761Y-67532238D01*
X114472571Y-67494142D01*
X114282095Y-67494142D01*
X114205904Y-67456047D01*
X113901142Y-67265571D02*
X113710666Y-67798904D01*
X113520190Y-67265571D02*
X113710666Y-67798904D01*
X113786857Y-67989380D01*
X113824952Y-68027476D01*
X113901142Y-68065571D01*
D12*
X119562000Y-46711523D02*
X118162000Y-46711523D01*
X118862000Y-48611523D02*
X118862000Y-46711523D01*
X117345333Y-48611523D02*
X117345333Y-47344857D01*
X117345333Y-47706761D02*
X117228666Y-47525809D01*
X117112000Y-47435333D01*
X116878666Y-47344857D01*
X116645333Y-47344857D01*
X115828666Y-48611523D02*
X115828666Y-47344857D01*
X115828666Y-46711523D02*
X115945333Y-46802000D01*
X115828666Y-46892476D01*
X115712000Y-46802000D01*
X115828666Y-46711523D01*
X115828666Y-46892476D01*
X115012000Y-47344857D02*
X114078666Y-47344857D01*
X114662000Y-46711523D02*
X114662000Y-48340095D01*
X114545333Y-48521047D01*
X114312000Y-48611523D01*
X114078666Y-48611523D01*
X112912000Y-48611523D02*
X113145333Y-48521047D01*
X113262000Y-48430571D01*
X113378666Y-48249619D01*
X113378666Y-47706761D01*
X113262000Y-47525809D01*
X113145333Y-47435333D01*
X112912000Y-47344857D01*
X112562000Y-47344857D01*
X112328666Y-47435333D01*
X112212000Y-47525809D01*
X112095333Y-47706761D01*
X112095333Y-48249619D01*
X112212000Y-48430571D01*
X112328666Y-48521047D01*
X112562000Y-48611523D01*
X112912000Y-48611523D01*
X111045333Y-47344857D02*
X111045333Y-48611523D01*
X111045333Y-47525809D02*
X110928666Y-47435333D01*
X110695333Y-47344857D01*
X110345333Y-47344857D01*
X110112000Y-47435333D01*
X109995333Y-47616285D01*
X109995333Y-48611523D01*
X106962000Y-48611523D02*
X106962000Y-46711523D01*
X106378666Y-46711523D01*
X106028666Y-46802000D01*
X105795333Y-46982952D01*
X105678666Y-47163904D01*
X105562000Y-47525809D01*
X105562000Y-47797238D01*
X105678666Y-48159142D01*
X105795333Y-48340095D01*
X106028666Y-48521047D01*
X106378666Y-48611523D01*
X106962000Y-48611523D01*
X103578666Y-48521047D02*
X103812000Y-48611523D01*
X104278666Y-48611523D01*
X104512000Y-48521047D01*
X104628666Y-48340095D01*
X104628666Y-47616285D01*
X104512000Y-47435333D01*
X104278666Y-47344857D01*
X103812000Y-47344857D01*
X103578666Y-47435333D01*
X103462000Y-47616285D01*
X103462000Y-47797238D01*
X104628666Y-47978190D01*
X102062000Y-48611523D02*
X102295333Y-48521047D01*
X102412000Y-48340095D01*
X102412000Y-46711523D01*
X100078666Y-48611523D02*
X100078666Y-47616285D01*
X100195333Y-47435333D01*
X100428666Y-47344857D01*
X100895333Y-47344857D01*
X101128666Y-47435333D01*
X100078666Y-48521047D02*
X100312000Y-48611523D01*
X100895333Y-48611523D01*
X101128666Y-48521047D01*
X101245333Y-48340095D01*
X101245333Y-48159142D01*
X101128666Y-47978190D01*
X100895333Y-47887714D01*
X100312000Y-47887714D01*
X100078666Y-47797238D01*
X99145333Y-47344857D02*
X98562000Y-48611523D01*
X97978666Y-47344857D02*
X98562000Y-48611523D01*
X98795333Y-49063904D01*
X98912000Y-49154380D01*
X99145333Y-49244857D01*
D13*
X87122000Y-81788000D02*
X87122000Y-83058000D01*
X102362000Y-81788000D02*
X87122000Y-81788000D01*
X102362000Y-83058000D02*
X102362000Y-81788000D01*
X87122000Y-85598000D02*
X87122000Y-83058000D01*
X87122000Y-85598000D02*
X102362000Y-85598000D01*
X102362000Y-83058000D02*
X102362000Y-85598000D01*
X102362000Y-83058000D02*
X87122000Y-83058000D01*
X110490000Y-40640000D02*
X110490000Y-39370000D01*
X115570000Y-40640000D02*
X115570000Y-39370000D01*
X110490000Y-39370000D02*
X115570000Y-39370000D01*
X110490000Y-43180000D02*
X110490000Y-40640000D01*
X115570000Y-43180000D02*
X115570000Y-40640000D01*
X110490000Y-43180000D02*
X115570000Y-43180000D01*
X115570000Y-40640000D02*
X110490000Y-40640000D01*
X118008400Y-82956400D02*
X107848400Y-82956400D01*
X107848400Y-85496400D02*
X118008400Y-85496400D01*
X118008400Y-85496400D02*
X118008400Y-82956400D01*
X107848400Y-85496400D02*
X107848400Y-82956400D01*
X107848400Y-81686400D02*
X118008400Y-81686400D01*
X118008400Y-82956400D02*
X118008400Y-81686400D01*
X107848400Y-82956400D02*
X107848400Y-81686400D01*
D14*
X114638835Y-80771108D02*
G75*
G02*
X111406500Y-80928016I-1672335J1078608D01*
G01*
X114638835Y-78613892D02*
G75*
G03*
X111406500Y-78456984I-1672335J-1078608D01*
G01*
X114007630Y-80772337D02*
G75*
G02*
X111925539Y-80772500I-1041130J1079837D01*
G01*
X114007630Y-78612663D02*
G75*
G03*
X111925539Y-78612500I-1041130J-1079837D01*
G01*
X111406500Y-80928500D02*
X111406500Y-80772500D01*
X111406500Y-78612500D02*
X111406500Y-78456500D01*
X103420165Y-83249392D02*
G75*
G02*
X106652500Y-83092484I1672335J-1078608D01*
G01*
X103420165Y-85406608D02*
G75*
G03*
X106652500Y-85563516I1672335J1078608D01*
G01*
X104051370Y-83248163D02*
G75*
G02*
X106133461Y-83248000I1041130J-1079837D01*
G01*
X104051370Y-85407837D02*
G75*
G03*
X106133461Y-85408000I1041130J1079837D01*
G01*
X106652500Y-83092000D02*
X106652500Y-83248000D01*
X106652500Y-85408000D02*
X106652500Y-85564000D01*
X119168165Y-83249392D02*
G75*
G02*
X122400500Y-83092484I1672335J-1078608D01*
G01*
X119168165Y-85406608D02*
G75*
G03*
X122400500Y-85563516I1672335J1078608D01*
G01*
X119799370Y-83248163D02*
G75*
G02*
X121881461Y-83248000I1041130J-1079837D01*
G01*
X119799370Y-85407837D02*
G75*
G03*
X121881461Y-85408000I1041130J1079837D01*
G01*
X122400500Y-83092000D02*
X122400500Y-83248000D01*
X122400500Y-85408000D02*
X122400500Y-85564000D01*
D15*
X97170333Y-43648380D02*
X96598904Y-43648380D01*
X96884619Y-44648380D02*
X96884619Y-43648380D01*
X96265571Y-44648380D02*
X96265571Y-43981714D01*
X96265571Y-43648380D02*
X96313190Y-43696000D01*
X96265571Y-43743619D01*
X96217952Y-43696000D01*
X96265571Y-43648380D01*
X96265571Y-43743619D01*
X95789380Y-44648380D02*
X95789380Y-43981714D01*
X95789380Y-44076952D02*
X95741761Y-44029333D01*
X95646523Y-43981714D01*
X95503666Y-43981714D01*
X95408428Y-44029333D01*
X95360809Y-44124571D01*
X95360809Y-44648380D01*
X95360809Y-44124571D02*
X95313190Y-44029333D01*
X95217952Y-43981714D01*
X95075095Y-43981714D01*
X94979857Y-44029333D01*
X94932238Y-44124571D01*
X94932238Y-44648380D01*
X94075095Y-44600761D02*
X94170333Y-44648380D01*
X94360809Y-44648380D01*
X94456047Y-44600761D01*
X94503666Y-44505523D01*
X94503666Y-44124571D01*
X94456047Y-44029333D01*
X94360809Y-43981714D01*
X94170333Y-43981714D01*
X94075095Y-44029333D01*
X94027476Y-44124571D01*
X94027476Y-44219809D01*
X94503666Y-44315047D01*
X93646523Y-43743619D02*
X93598904Y-43696000D01*
X93503666Y-43648380D01*
X93265571Y-43648380D01*
X93170333Y-43696000D01*
X93122714Y-43743619D01*
X93075095Y-43838857D01*
X93075095Y-43934095D01*
X93122714Y-44076952D01*
X93694142Y-44648380D01*
X93075095Y-44648380D01*
X91551285Y-44124571D02*
X91408428Y-44172190D01*
X91360809Y-44219809D01*
X91313190Y-44315047D01*
X91313190Y-44457904D01*
X91360809Y-44553142D01*
X91408428Y-44600761D01*
X91503666Y-44648380D01*
X91884619Y-44648380D01*
X91884619Y-43648380D01*
X91551285Y-43648380D01*
X91456047Y-43696000D01*
X91408428Y-43743619D01*
X91360809Y-43838857D01*
X91360809Y-43934095D01*
X91408428Y-44029333D01*
X91456047Y-44076952D01*
X91551285Y-44124571D01*
X91884619Y-44124571D01*
X90408428Y-43648380D02*
X90884619Y-43648380D01*
X90932238Y-44124571D01*
X90884619Y-44076952D01*
X90789380Y-44029333D01*
X90551285Y-44029333D01*
X90456047Y-44076952D01*
X90408428Y-44124571D01*
X90360809Y-44219809D01*
X90360809Y-44457904D01*
X90408428Y-44553142D01*
X90456047Y-44600761D01*
X90551285Y-44648380D01*
X90789380Y-44648380D01*
X90884619Y-44600761D01*
X90932238Y-44553142D01*
X89741761Y-43648380D02*
X89646523Y-43648380D01*
X89551285Y-43696000D01*
X89503666Y-43743619D01*
X89456047Y-43838857D01*
X89408428Y-44029333D01*
X89408428Y-44267428D01*
X89456047Y-44457904D01*
X89503666Y-44553142D01*
X89551285Y-44600761D01*
X89646523Y-44648380D01*
X89741761Y-44648380D01*
X89837000Y-44600761D01*
X89884619Y-44553142D01*
X89932238Y-44457904D01*
X89979857Y-44267428D01*
X89979857Y-44029333D01*
X89932238Y-43838857D01*
X89884619Y-43743619D01*
X89837000Y-43696000D01*
X89741761Y-43648380D01*
X88979857Y-44648380D02*
X88979857Y-43648380D01*
X88884619Y-44267428D02*
X88598904Y-44648380D01*
X88598904Y-43981714D02*
X88979857Y-44362666D01*
X137048333Y-43775380D02*
X136476904Y-43775380D01*
X136762619Y-44775380D02*
X136762619Y-43775380D01*
X136143571Y-44775380D02*
X136143571Y-44108714D01*
X136143571Y-43775380D02*
X136191190Y-43823000D01*
X136143571Y-43870619D01*
X136095952Y-43823000D01*
X136143571Y-43775380D01*
X136143571Y-43870619D01*
X135667380Y-44775380D02*
X135667380Y-44108714D01*
X135667380Y-44203952D02*
X135619761Y-44156333D01*
X135524523Y-44108714D01*
X135381666Y-44108714D01*
X135286428Y-44156333D01*
X135238809Y-44251571D01*
X135238809Y-44775380D01*
X135238809Y-44251571D02*
X135191190Y-44156333D01*
X135095952Y-44108714D01*
X134953095Y-44108714D01*
X134857857Y-44156333D01*
X134810238Y-44251571D01*
X134810238Y-44775380D01*
X133953095Y-44727761D02*
X134048333Y-44775380D01*
X134238809Y-44775380D01*
X134334047Y-44727761D01*
X134381666Y-44632523D01*
X134381666Y-44251571D01*
X134334047Y-44156333D01*
X134238809Y-44108714D01*
X134048333Y-44108714D01*
X133953095Y-44156333D01*
X133905476Y-44251571D01*
X133905476Y-44346809D01*
X134381666Y-44442047D01*
X132953095Y-44775380D02*
X133524523Y-44775380D01*
X133238809Y-44775380D02*
X133238809Y-43775380D01*
X133334047Y-43918238D01*
X133429285Y-44013476D01*
X133524523Y-44061095D01*
X131429285Y-44251571D02*
X131286428Y-44299190D01*
X131238809Y-44346809D01*
X131191190Y-44442047D01*
X131191190Y-44584904D01*
X131238809Y-44680142D01*
X131286428Y-44727761D01*
X131381666Y-44775380D01*
X131762619Y-44775380D01*
X131762619Y-43775380D01*
X131429285Y-43775380D01*
X131334047Y-43823000D01*
X131286428Y-43870619D01*
X131238809Y-43965857D01*
X131238809Y-44061095D01*
X131286428Y-44156333D01*
X131334047Y-44203952D01*
X131429285Y-44251571D01*
X131762619Y-44251571D01*
X130286428Y-43775380D02*
X130762619Y-43775380D01*
X130810238Y-44251571D01*
X130762619Y-44203952D01*
X130667380Y-44156333D01*
X130429285Y-44156333D01*
X130334047Y-44203952D01*
X130286428Y-44251571D01*
X130238809Y-44346809D01*
X130238809Y-44584904D01*
X130286428Y-44680142D01*
X130334047Y-44727761D01*
X130429285Y-44775380D01*
X130667380Y-44775380D01*
X130762619Y-44727761D01*
X130810238Y-44680142D01*
X129619761Y-43775380D02*
X129524523Y-43775380D01*
X129429285Y-43823000D01*
X129381666Y-43870619D01*
X129334047Y-43965857D01*
X129286428Y-44156333D01*
X129286428Y-44394428D01*
X129334047Y-44584904D01*
X129381666Y-44680142D01*
X129429285Y-44727761D01*
X129524523Y-44775380D01*
X129619761Y-44775380D01*
X129715000Y-44727761D01*
X129762619Y-44680142D01*
X129810238Y-44584904D01*
X129857857Y-44394428D01*
X129857857Y-44156333D01*
X129810238Y-43965857D01*
X129762619Y-43870619D01*
X129715000Y-43823000D01*
X129619761Y-43775380D01*
X128857857Y-44775380D02*
X128857857Y-43775380D01*
X128762619Y-44394428D02*
X128476904Y-44775380D01*
X128476904Y-44108714D02*
X128857857Y-44489666D01*
X114782523Y-39605000D02*
X114858714Y-39566904D01*
X114973000Y-39566904D01*
X115087285Y-39605000D01*
X115163476Y-39681190D01*
X115201571Y-39757380D01*
X115239666Y-39909761D01*
X115239666Y-40024047D01*
X115201571Y-40176428D01*
X115163476Y-40252619D01*
X115087285Y-40328809D01*
X114973000Y-40366904D01*
X114896809Y-40366904D01*
X114782523Y-40328809D01*
X114744428Y-40290714D01*
X114744428Y-40024047D01*
X114896809Y-40024047D01*
X114401571Y-40366904D02*
X114401571Y-39566904D01*
X113944428Y-40366904D01*
X113944428Y-39566904D01*
X113563476Y-40366904D02*
X113563476Y-39566904D01*
X113373000Y-39566904D01*
X113258714Y-39605000D01*
X113182523Y-39681190D01*
X113144428Y-39757380D01*
X113106333Y-39909761D01*
X113106333Y-40024047D01*
X113144428Y-40176428D01*
X113182523Y-40252619D01*
X113258714Y-40328809D01*
X113373000Y-40366904D01*
X113563476Y-40366904D01*
X112394904Y-39566904D02*
X112128238Y-40366904D01*
X111861571Y-39566904D01*
X111594904Y-40062142D02*
X110985380Y-40062142D01*
X111290142Y-40366904D02*
X111290142Y-39757380D01*
X136405476Y-40584380D02*
X136738809Y-40108190D01*
X136976904Y-40584380D02*
X136976904Y-39584380D01*
X136595952Y-39584380D01*
X136500714Y-39632000D01*
X136453095Y-39679619D01*
X136405476Y-39774857D01*
X136405476Y-39917714D01*
X136453095Y-40012952D01*
X136500714Y-40060571D01*
X136595952Y-40108190D01*
X136976904Y-40108190D01*
X135595952Y-40536761D02*
X135691190Y-40584380D01*
X135881666Y-40584380D01*
X135976904Y-40536761D01*
X136024523Y-40441523D01*
X136024523Y-40060571D01*
X135976904Y-39965333D01*
X135881666Y-39917714D01*
X135691190Y-39917714D01*
X135595952Y-39965333D01*
X135548333Y-40060571D01*
X135548333Y-40155809D01*
X136024523Y-40251047D01*
X134691190Y-39917714D02*
X134691190Y-40727238D01*
X134738809Y-40822476D01*
X134786428Y-40870095D01*
X134881666Y-40917714D01*
X135024523Y-40917714D01*
X135119761Y-40870095D01*
X134691190Y-40536761D02*
X134786428Y-40584380D01*
X134976904Y-40584380D01*
X135072142Y-40536761D01*
X135119761Y-40489142D01*
X135167380Y-40393904D01*
X135167380Y-40108190D01*
X135119761Y-40012952D01*
X135072142Y-39965333D01*
X134976904Y-39917714D01*
X134786428Y-39917714D01*
X134691190Y-39965333D01*
X133834047Y-40536761D02*
X133929285Y-40584380D01*
X134119761Y-40584380D01*
X134215000Y-40536761D01*
X134262619Y-40441523D01*
X134262619Y-40060571D01*
X134215000Y-39965333D01*
X134119761Y-39917714D01*
X133929285Y-39917714D01*
X133834047Y-39965333D01*
X133786428Y-40060571D01*
X133786428Y-40155809D01*
X134262619Y-40251047D01*
X133357857Y-39917714D02*
X133357857Y-40584380D01*
X133357857Y-40012952D02*
X133310238Y-39965333D01*
X133215000Y-39917714D01*
X133072142Y-39917714D01*
X132976904Y-39965333D01*
X132929285Y-40060571D01*
X132929285Y-40584380D01*
X131357857Y-40060571D02*
X131215000Y-40108190D01*
X131167380Y-40155809D01*
X131119761Y-40251047D01*
X131119761Y-40393904D01*
X131167380Y-40489142D01*
X131215000Y-40536761D01*
X131310238Y-40584380D01*
X131691190Y-40584380D01*
X131691190Y-39584380D01*
X131357857Y-39584380D01*
X131262619Y-39632000D01*
X131215000Y-39679619D01*
X131167380Y-39774857D01*
X131167380Y-39870095D01*
X131215000Y-39965333D01*
X131262619Y-40012952D01*
X131357857Y-40060571D01*
X131691190Y-40060571D01*
X130215000Y-39584380D02*
X130691190Y-39584380D01*
X130738809Y-40060571D01*
X130691190Y-40012952D01*
X130595952Y-39965333D01*
X130357857Y-39965333D01*
X130262619Y-40012952D01*
X130215000Y-40060571D01*
X130167380Y-40155809D01*
X130167380Y-40393904D01*
X130215000Y-40489142D01*
X130262619Y-40536761D01*
X130357857Y-40584380D01*
X130595952Y-40584380D01*
X130691190Y-40536761D01*
X130738809Y-40489142D01*
X129548333Y-39584380D02*
X129453095Y-39584380D01*
X129357857Y-39632000D01*
X129310238Y-39679619D01*
X129262619Y-39774857D01*
X129215000Y-39965333D01*
X129215000Y-40203428D01*
X129262619Y-40393904D01*
X129310238Y-40489142D01*
X129357857Y-40536761D01*
X129453095Y-40584380D01*
X129548333Y-40584380D01*
X129643571Y-40536761D01*
X129691190Y-40489142D01*
X129738809Y-40393904D01*
X129786428Y-40203428D01*
X129786428Y-39965333D01*
X129738809Y-39774857D01*
X129691190Y-39679619D01*
X129643571Y-39632000D01*
X129548333Y-39584380D01*
X128786428Y-40584380D02*
X128786428Y-39584380D01*
X128691190Y-40203428D02*
X128405476Y-40584380D01*
X128405476Y-39917714D02*
X128786428Y-40298666D01*
X125134285Y-40584380D02*
X125134285Y-39584380D01*
X124800952Y-40298666D01*
X124467619Y-39584380D01*
X124467619Y-40584380D01*
X123991428Y-40584380D02*
X123991428Y-39917714D01*
X123991428Y-39584380D02*
X124039047Y-39632000D01*
X123991428Y-39679619D01*
X123943809Y-39632000D01*
X123991428Y-39584380D01*
X123991428Y-39679619D01*
X123610476Y-40584380D02*
X123086666Y-39917714D01*
X123610476Y-39917714D02*
X123086666Y-40584380D01*
X121610476Y-40060571D02*
X121467619Y-40108190D01*
X121420000Y-40155809D01*
X121372380Y-40251047D01*
X121372380Y-40393904D01*
X121420000Y-40489142D01*
X121467619Y-40536761D01*
X121562857Y-40584380D01*
X121943809Y-40584380D01*
X121943809Y-39584380D01*
X121610476Y-39584380D01*
X121515238Y-39632000D01*
X121467619Y-39679619D01*
X121420000Y-39774857D01*
X121420000Y-39870095D01*
X121467619Y-39965333D01*
X121515238Y-40012952D01*
X121610476Y-40060571D01*
X121943809Y-40060571D01*
X120467619Y-39584380D02*
X120943809Y-39584380D01*
X120991428Y-40060571D01*
X120943809Y-40012952D01*
X120848571Y-39965333D01*
X120610476Y-39965333D01*
X120515238Y-40012952D01*
X120467619Y-40060571D01*
X120420000Y-40155809D01*
X120420000Y-40393904D01*
X120467619Y-40489142D01*
X120515238Y-40536761D01*
X120610476Y-40584380D01*
X120848571Y-40584380D01*
X120943809Y-40536761D01*
X120991428Y-40489142D01*
X119800952Y-39584380D02*
X119705714Y-39584380D01*
X119610476Y-39632000D01*
X119562857Y-39679619D01*
X119515238Y-39774857D01*
X119467619Y-39965333D01*
X119467619Y-40203428D01*
X119515238Y-40393904D01*
X119562857Y-40489142D01*
X119610476Y-40536761D01*
X119705714Y-40584380D01*
X119800952Y-40584380D01*
X119896190Y-40536761D01*
X119943809Y-40489142D01*
X119991428Y-40393904D01*
X120039047Y-40203428D01*
X120039047Y-39965333D01*
X119991428Y-39774857D01*
X119943809Y-39679619D01*
X119896190Y-39632000D01*
X119800952Y-39584380D01*
X119039047Y-40584380D02*
X119039047Y-39584380D01*
X118943809Y-40203428D02*
X118658095Y-40584380D01*
X118658095Y-39917714D02*
X119039047Y-40298666D01*
X108481143Y-39584380D02*
X107909715Y-39584380D01*
X108195429Y-40584380D02*
X108195429Y-39584380D01*
X107433524Y-40584380D02*
X107528762Y-40536761D01*
X107576381Y-40489142D01*
X107624001Y-40393904D01*
X107624001Y-40108190D01*
X107576381Y-40012952D01*
X107528762Y-39965333D01*
X107433524Y-39917714D01*
X107290667Y-39917714D01*
X107195429Y-39965333D01*
X107147810Y-40012952D01*
X107100191Y-40108190D01*
X107100191Y-40393904D01*
X107147810Y-40489142D01*
X107195429Y-40536761D01*
X107290667Y-40584380D01*
X107433524Y-40584380D01*
X106671620Y-39917714D02*
X106671620Y-40584380D01*
X106671620Y-40012952D02*
X106624001Y-39965333D01*
X106528762Y-39917714D01*
X106385905Y-39917714D01*
X106290667Y-39965333D01*
X106243048Y-40060571D01*
X106243048Y-40584380D01*
X105385905Y-40536761D02*
X105481143Y-40584380D01*
X105671620Y-40584380D01*
X105766858Y-40536761D01*
X105814477Y-40441523D01*
X105814477Y-40060571D01*
X105766858Y-39965333D01*
X105671620Y-39917714D01*
X105481143Y-39917714D01*
X105385905Y-39965333D01*
X105338286Y-40060571D01*
X105338286Y-40155809D01*
X105814477Y-40251047D01*
X103814477Y-40060571D02*
X103671620Y-40108190D01*
X103624001Y-40155809D01*
X103576381Y-40251047D01*
X103576381Y-40393904D01*
X103624001Y-40489142D01*
X103671620Y-40536761D01*
X103766858Y-40584380D01*
X104147810Y-40584380D01*
X104147810Y-39584380D01*
X103814477Y-39584380D01*
X103719239Y-39632000D01*
X103671620Y-39679619D01*
X103624001Y-39774857D01*
X103624001Y-39870095D01*
X103671620Y-39965333D01*
X103719239Y-40012952D01*
X103814477Y-40060571D01*
X104147810Y-40060571D01*
X102624001Y-40584380D02*
X103195429Y-40584380D01*
X102909715Y-40584380D02*
X102909715Y-39584380D01*
X103004953Y-39727238D01*
X103100191Y-39822476D01*
X103195429Y-39870095D01*
X102004953Y-39584380D02*
X101909715Y-39584380D01*
X101814477Y-39632000D01*
X101766858Y-39679619D01*
X101719239Y-39774857D01*
X101671620Y-39965333D01*
X101671620Y-40203428D01*
X101719239Y-40393904D01*
X101766858Y-40489142D01*
X101814477Y-40536761D01*
X101909715Y-40584380D01*
X102004953Y-40584380D01*
X102100191Y-40536761D01*
X102147810Y-40489142D01*
X102195429Y-40393904D01*
X102243048Y-40203428D01*
X102243048Y-39965333D01*
X102195429Y-39774857D01*
X102147810Y-39679619D01*
X102100191Y-39632000D01*
X102004953Y-39584380D01*
X101243048Y-40584380D02*
X101243048Y-39584380D01*
X101147810Y-40203428D02*
X100862096Y-40584380D01*
X100862096Y-39917714D02*
X101243048Y-40298666D01*
X96598904Y-40536761D02*
X96456047Y-40584380D01*
X96217952Y-40584380D01*
X96122714Y-40536761D01*
X96075095Y-40489142D01*
X96027476Y-40393904D01*
X96027476Y-40298666D01*
X96075095Y-40203428D01*
X96122714Y-40155809D01*
X96217952Y-40108190D01*
X96408428Y-40060571D01*
X96503666Y-40012952D01*
X96551285Y-39965333D01*
X96598904Y-39870095D01*
X96598904Y-39774857D01*
X96551285Y-39679619D01*
X96503666Y-39632000D01*
X96408428Y-39584380D01*
X96170333Y-39584380D01*
X96027476Y-39632000D01*
X95456047Y-40584380D02*
X95551285Y-40536761D01*
X95598904Y-40441523D01*
X95598904Y-39584380D01*
X94932238Y-40584380D02*
X95027476Y-40536761D01*
X95075095Y-40489142D01*
X95122714Y-40393904D01*
X95122714Y-40108190D01*
X95075095Y-40012952D01*
X95027476Y-39965333D01*
X94932238Y-39917714D01*
X94789380Y-39917714D01*
X94694142Y-39965333D01*
X94646523Y-40012952D01*
X94598904Y-40108190D01*
X94598904Y-40393904D01*
X94646523Y-40489142D01*
X94694142Y-40536761D01*
X94789380Y-40584380D01*
X94932238Y-40584380D01*
X94265571Y-39917714D02*
X94075095Y-40584380D01*
X93884619Y-40108190D01*
X93694142Y-40584380D01*
X93503666Y-39917714D01*
X92027476Y-40060571D02*
X91884619Y-40108190D01*
X91837000Y-40155809D01*
X91789380Y-40251047D01*
X91789380Y-40393904D01*
X91837000Y-40489142D01*
X91884619Y-40536761D01*
X91979857Y-40584380D01*
X92360809Y-40584380D01*
X92360809Y-39584380D01*
X92027476Y-39584380D01*
X91932238Y-39632000D01*
X91884619Y-39679619D01*
X91837000Y-39774857D01*
X91837000Y-39870095D01*
X91884619Y-39965333D01*
X91932238Y-40012952D01*
X92027476Y-40060571D01*
X92360809Y-40060571D01*
X90837000Y-40584380D02*
X91408428Y-40584380D01*
X91122714Y-40584380D02*
X91122714Y-39584380D01*
X91217952Y-39727238D01*
X91313190Y-39822476D01*
X91408428Y-39870095D01*
X90217952Y-39584380D02*
X90122714Y-39584380D01*
X90027476Y-39632000D01*
X89979857Y-39679619D01*
X89932238Y-39774857D01*
X89884619Y-39965333D01*
X89884619Y-40203428D01*
X89932238Y-40393904D01*
X89979857Y-40489142D01*
X90027476Y-40536761D01*
X90122714Y-40584380D01*
X90217952Y-40584380D01*
X90313190Y-40536761D01*
X90360809Y-40489142D01*
X90408428Y-40393904D01*
X90456047Y-40203428D01*
X90456047Y-39965333D01*
X90408428Y-39774857D01*
X90360809Y-39679619D01*
X90313190Y-39632000D01*
X90217952Y-39584380D01*
X89456047Y-40584380D02*
X89456047Y-39584380D01*
X89360809Y-40203428D02*
X89075095Y-40584380D01*
X89075095Y-39917714D02*
X89456047Y-40298666D01*
X109537447Y-82683304D02*
X109537447Y-81883304D01*
X109156495Y-82683304D02*
X109156495Y-81883304D01*
X108699352Y-82683304D01*
X108699352Y-81883304D01*
X112267923Y-81921400D02*
X112344114Y-81883304D01*
X112458400Y-81883304D01*
X112572685Y-81921400D01*
X112648876Y-81997590D01*
X112686971Y-82073780D01*
X112725066Y-82226161D01*
X112725066Y-82340447D01*
X112686971Y-82492828D01*
X112648876Y-82569019D01*
X112572685Y-82645209D01*
X112458400Y-82683304D01*
X112382209Y-82683304D01*
X112267923Y-82645209D01*
X112229828Y-82607114D01*
X112229828Y-82340447D01*
X112382209Y-82340447D01*
X111886971Y-82683304D02*
X111886971Y-81883304D01*
X111429828Y-82683304D01*
X111429828Y-81883304D01*
X111048876Y-82683304D02*
X111048876Y-81883304D01*
X110858400Y-81883304D01*
X110744114Y-81921400D01*
X110667923Y-81997590D01*
X110629828Y-82073780D01*
X110591733Y-82226161D01*
X110591733Y-82340447D01*
X110629828Y-82492828D01*
X110667923Y-82569019D01*
X110744114Y-82645209D01*
X110858400Y-82683304D01*
X111048876Y-82683304D01*
X114884114Y-82645209D02*
X114769828Y-82683304D01*
X114579352Y-82683304D01*
X114503161Y-82645209D01*
X114465066Y-82607114D01*
X114426971Y-82530923D01*
X114426971Y-82454733D01*
X114465066Y-82378542D01*
X114503161Y-82340447D01*
X114579352Y-82302352D01*
X114731733Y-82264257D01*
X114807923Y-82226161D01*
X114846019Y-82188066D01*
X114884114Y-82111876D01*
X114884114Y-82035685D01*
X114846019Y-81959495D01*
X114807923Y-81921400D01*
X114731733Y-81883304D01*
X114541257Y-81883304D01*
X114426971Y-81921400D01*
X114160304Y-81883304D02*
X113969828Y-82683304D01*
X113817447Y-82111876D01*
X113665066Y-82683304D01*
X113474590Y-81883304D01*
X117538400Y-81883304D02*
X117386019Y-81883304D01*
X117309828Y-81921400D01*
X117233638Y-81997590D01*
X117195542Y-82149971D01*
X117195542Y-82416638D01*
X117233638Y-82569019D01*
X117309828Y-82645209D01*
X117386019Y-82683304D01*
X117538400Y-82683304D01*
X117614590Y-82645209D01*
X117690780Y-82569019D01*
X117728876Y-82416638D01*
X117728876Y-82149971D01*
X117690780Y-81997590D01*
X117614590Y-81921400D01*
X117538400Y-81883304D01*
X116852685Y-81883304D02*
X116852685Y-82530923D01*
X116814590Y-82607114D01*
X116776495Y-82645209D01*
X116700304Y-82683304D01*
X116547923Y-82683304D01*
X116471733Y-82645209D01*
X116433638Y-82607114D01*
X116395542Y-82530923D01*
X116395542Y-81883304D01*
X116128876Y-81883304D02*
X115671733Y-81883304D01*
X115900304Y-82683304D02*
X115900304Y-81883304D01*
X113831595Y-77477880D02*
X113831595Y-76477880D01*
X113593500Y-76477880D01*
X113450642Y-76525500D01*
X113355404Y-76620738D01*
X113307785Y-76715976D01*
X113260166Y-76906452D01*
X113260166Y-77049309D01*
X113307785Y-77239785D01*
X113355404Y-77335023D01*
X113450642Y-77430261D01*
X113593500Y-77477880D01*
X113831595Y-77477880D01*
X112926833Y-76477880D02*
X112307785Y-76477880D01*
X112641119Y-76858833D01*
X112498261Y-76858833D01*
X112403023Y-76906452D01*
X112355404Y-76954071D01*
X112307785Y-77049309D01*
X112307785Y-77287404D01*
X112355404Y-77382642D01*
X112403023Y-77430261D01*
X112498261Y-77477880D01*
X112783976Y-77477880D01*
X112879214Y-77430261D01*
X112926833Y-77382642D01*
X105894095Y-82113380D02*
X105894095Y-81113380D01*
X105656000Y-81113380D01*
X105513142Y-81161000D01*
X105417904Y-81256238D01*
X105370285Y-81351476D01*
X105322666Y-81541952D01*
X105322666Y-81684809D01*
X105370285Y-81875285D01*
X105417904Y-81970523D01*
X105513142Y-82065761D01*
X105656000Y-82113380D01*
X105894095Y-82113380D01*
X104941714Y-81208619D02*
X104894095Y-81161000D01*
X104798857Y-81113380D01*
X104560761Y-81113380D01*
X104465523Y-81161000D01*
X104417904Y-81208619D01*
X104370285Y-81303857D01*
X104370285Y-81399095D01*
X104417904Y-81541952D01*
X104989333Y-82113380D01*
X104370285Y-82113380D01*
X121515095Y-81986380D02*
X121515095Y-80986380D01*
X121277000Y-80986380D01*
X121134142Y-81034000D01*
X121038904Y-81129238D01*
X120991285Y-81224476D01*
X120943666Y-81414952D01*
X120943666Y-81557809D01*
X120991285Y-81748285D01*
X121038904Y-81843523D01*
X121134142Y-81938761D01*
X121277000Y-81986380D01*
X121515095Y-81986380D01*
X119991285Y-81986380D02*
X120562714Y-81986380D01*
X120277000Y-81986380D02*
X120277000Y-80986380D01*
X120372238Y-81129238D01*
X120467476Y-81224476D01*
X120562714Y-81272095D01*
%LPC*%
D16*
X108458000Y-75819000D03*
D17*
X116078000Y-75819000D03*
D18*
X88900000Y-46355000D03*
X92710000Y-46355000D03*
D19*
X96520000Y-46355000D03*
D18*
X128905000Y-46355000D03*
X132715000Y-46355000D03*
D19*
X136525000Y-46355000D03*
D17*
X111299000Y-65481200D03*
X106299000Y-65481200D03*
X123397000Y-61468000D03*
X128397000Y-61468000D03*
X136622800Y-64617600D03*
X131622800Y-64617600D03*
X115523000Y-61468000D03*
X120523000Y-61468000D03*
D18*
X101092000Y-84328000D03*
X98552000Y-84328000D03*
X96012000Y-84328000D03*
X93472000Y-84328000D03*
X90932000Y-84328000D03*
D19*
X88392000Y-84328000D03*
D20*
X114300000Y-41910000D03*
D21*
X111760000Y-41910000D03*
D16*
X136779000Y-81407000D03*
D17*
X129159000Y-81407000D03*
D16*
X136779000Y-78473300D03*
D17*
X129159000Y-78473300D03*
D16*
X136779000Y-75425300D03*
D17*
X129159000Y-75425300D03*
D16*
X129159000Y-84518500D03*
D17*
X136779000Y-84518500D03*
D16*
X89916000Y-49530000D03*
D17*
X97536000Y-49530000D03*
D16*
X126492000Y-44704000D03*
D17*
X118872000Y-44704000D03*
D16*
X106106600Y-73863200D03*
D17*
X98486600Y-73863200D03*
D16*
X106095800Y-70789800D03*
D17*
X98475800Y-70789800D03*
D16*
X106106600Y-76911200D03*
D17*
X98486600Y-76911200D03*
D16*
X89916000Y-52705000D03*
D17*
X97536000Y-52705000D03*
D16*
X89916000Y-55753000D03*
D17*
X97536000Y-55753000D03*
D16*
X107823000Y-58166000D03*
D17*
X100203000Y-58166000D03*
D16*
X100203000Y-55118000D03*
D17*
X107823000Y-55118000D03*
D16*
X129159000Y-65633600D03*
D17*
X121539000Y-65633600D03*
D16*
X116840000Y-80010000D03*
D17*
X124460000Y-80010000D03*
D16*
X129159000Y-69215000D03*
D17*
X136779000Y-69215000D03*
D16*
X136779000Y-72263000D03*
D17*
X129159000Y-72263000D03*
D16*
X116078000Y-69723000D03*
D17*
X108458000Y-69723000D03*
D16*
X108458000Y-72771000D03*
D17*
X116078000Y-72771000D03*
D18*
X128905000Y-41910000D03*
X132715000Y-41910000D03*
D19*
X136525000Y-41910000D03*
D18*
X117856000Y-41910000D03*
X121666000Y-41910000D03*
D19*
X125476000Y-41910000D03*
D18*
X100584000Y-41910000D03*
X104394000Y-41910000D03*
D19*
X108204000Y-41910000D03*
D18*
X88900000Y-41910000D03*
X92710000Y-41910000D03*
D19*
X96520000Y-41910000D03*
D22*
X114554000Y-45466000D03*
D23*
X112014000Y-45466000D03*
X113284000Y-45466000D03*
D20*
X116738400Y-84226400D03*
X114198400Y-84226400D03*
X111658400Y-84226400D03*
D21*
X109118400Y-84226400D03*
D16*
X126492000Y-69088000D03*
X118872000Y-76708000D03*
X126492000Y-71628000D03*
X118872000Y-74168000D03*
X126492000Y-74168000D03*
X118872000Y-71628000D03*
X126492000Y-76708000D03*
D24*
X118872000Y-69088000D03*
D16*
X95554800Y-59055000D03*
X87934800Y-76835000D03*
X95554800Y-61595000D03*
X87934800Y-74295000D03*
X95554800Y-64135000D03*
X87934800Y-71755000D03*
X95554800Y-66675000D03*
X87934800Y-69215000D03*
X95554800Y-69215000D03*
X87934800Y-66675000D03*
X95554800Y-71755000D03*
X87934800Y-64135000D03*
X95554800Y-74295000D03*
X87934800Y-61595000D03*
X95554800Y-76835000D03*
D24*
X87934800Y-59055000D03*
D25*
X114236500Y-79692500D03*
D26*
X111696500Y-79692500D03*
D25*
X103822500Y-84328000D03*
D26*
X106362500Y-84328000D03*
D25*
X119570500Y-84328000D03*
D26*
X122110500Y-84328000D03*
D17*
X128230000Y-53594000D03*
D24*
X125730000Y-53594000D03*
D17*
X120864000Y-53340000D03*
D24*
X118364000Y-53340000D03*
D17*
X135342000Y-55118000D03*
D24*
X132842000Y-55118000D03*
D17*
X106894000Y-50038000D03*
D24*
X104394000Y-50038000D03*
D17*
X113879000Y-51816000D03*
D24*
X111379000Y-51816000D03*
D17*
X103501200Y-67614800D03*
X98501200Y-67614800D03*
X93392000Y-80137000D03*
X88392000Y-80137000D03*
X96155500Y-80137000D03*
X101155500Y-80137000D03*
X100330000Y-49958000D03*
X100330000Y-44958000D03*
X109140000Y-44958000D03*
X104140000Y-44958000D03*
X126158000Y-47752000D03*
X121158000Y-47752000D03*
X136572000Y-49530000D03*
X131572000Y-49530000D03*
X112569000Y-61341000D03*
X107569000Y-61341000D03*
X98530400Y-64490600D03*
X103530400Y-64490600D03*
X99521000Y-61341000D03*
X104521000Y-61341000D03*
X115363000Y-57150000D03*
X110363000Y-57150000D03*
X131398000Y-60579000D03*
X136398000Y-60579000D03*
X119071400Y-65633600D03*
X114071400Y-65633600D03*
X103940600Y-80035400D03*
X108940600Y-80035400D03*
M02*
